<svg width="100" height="87" viewBox="0 0 100 87" fill="none" xmlns="http://www.w3.org/2000/svg">
<path d="M89.5503 38.4918H86.1681L57.0293 11.2289C57.5797 10.151 57.8659 8.95802 57.865 7.74752C57.8624 3.46558 54.3889 -0.00263193 50.107 1.49869e-06C45.825 0.00263493 42.3568 3.47612 42.3594 7.75806C42.3586 8.96416 42.6456 10.1536 43.1951 11.2271L14.0563 38.4918H10.6741C4.85076 38.4918 0 43.2864 0 49.1098V76.3007C0 82.1249 4.85076 86.8063 10.6741 86.8063H89.5503C92.333 86.8116 95.0024 85.7046 96.9651 83.7313C98.927 81.7589 100.02 79.0834 99.9997 76.3007V49.1098C99.9997 43.2864 95.3737 38.4918 89.5503 38.4918ZM30.9664 70.8574C30.5169 70.8574 30.0895 70.731 29.8428 70.2588L26.7643 64.3344H25.1685V69.6434C25.1685 70.3623 24.3591 70.7222 23.4831 70.7222C22.607 70.7222 21.7977 70.3623 21.7977 69.6434V55.3518C21.7863 55.0613 21.8916 54.7786 22.09 54.5662C22.2884 54.3538 22.5631 54.23 22.8537 54.2221H27.5052C30.5845 54.2221 33.0336 55.4045 33.0336 59.0676C33.0336 61.5843 31.8872 63.0406 30.3142 63.648L33.0564 68.6234C33.1319 68.7463 33.1706 68.8876 33.1688 69.0325C33.1688 69.9085 31.9996 70.8574 30.9664 70.8574ZM44.022 61.1884C44.6962 61.1884 45.0789 61.8406 45.0789 62.5595C45.0789 63.1661 44.7637 63.885 44.022 63.885H40.674V67.7052H46.6739C47.348 67.7052 47.7299 68.3574 47.7299 69.1887C47.7299 69.9076 47.4156 70.6266 46.6739 70.6266H38.6744C37.9098 70.6266 37.0785 70.3623 37.0785 69.6434V55.3738C37.0785 54.6549 37.9098 54.223 38.6744 54.223H46.6739C47.4156 54.223 47.7299 55.0543 47.7299 55.7741C47.7299 56.6054 47.348 57.369 46.6739 57.369H40.674V61.1893L44.022 61.1884ZM62.9212 69.6434C62.9212 70.3623 62.0785 70.7222 61.2024 70.7222C60.3931 70.7222 59.7137 70.5651 59.2862 69.7786L55.056 62.003V69.6434C55.056 70.3623 54.1343 70.7214 53.2583 70.7214C52.3822 70.7214 51.4605 70.3623 51.4605 69.6434V55.3738C51.4605 54.632 52.3594 54.295 53.2355 54.295C54.4942 54.295 55.0113 54.4073 55.8654 56.048L59.5504 62.9914V55.351C59.5504 54.6092 60.3597 54.295 61.2358 54.295C62.1118 54.295 62.9212 54.6092 62.9212 55.351V69.6434ZM77.3927 57.3682H74.3818V69.6434C74.3818 70.3623 73.4601 70.7222 72.5841 70.7222C71.708 70.7222 70.7863 70.3623 70.7863 69.6434V57.3682H67.685C67.0109 57.3682 66.629 56.6264 66.629 55.7732C66.629 55.0314 66.9433 54.2221 67.685 54.2221H77.3927C78.1344 54.2221 78.4496 55.0314 78.4496 55.7732C78.4496 56.6264 78.0668 57.3682 77.3927 57.3682ZM18.6587 38.4918L45.1631 13.6964C48.0239 16.1042 52.204 16.1016 55.0613 13.6894L81.5667 38.4918H18.6587Z" fill="#CBAE60"/>
<path d="M27.5052 57.3677H25.1685V61.6373H27.5052C28.764 61.6373 29.5276 61.0755 29.5276 59.5025C29.5276 57.9295 28.764 57.3677 27.5052 57.3677Z" fill="#CBAE60"/>
</svg>
