<svg width="100" height="100" viewBox="0 0 100 100" fill="none" xmlns="http://www.w3.org/2000/svg">
<g clip-path="url(#clip0)">
<path d="M78.749 5.27842C76.2611 2.93687 73.0772 1.8125 69.8682 1.8125C66.256 1.8125 62.608 3.23671 59.8881 5.96019L58.7209 7.12739L57.5537 5.95662C54.8338 3.23671 51.1858 1.8125 47.5735 1.8125C44.3646 1.8125 41.1807 2.93687 38.6928 5.27842C33.2208 10.4291 33.1245 19.0457 38.4001 24.3214L58.7209 44.6422L79.0417 24.3214C84.3173 19.0457 84.221 10.4291 78.749 5.27842Z" fill="#CBAE60"/>
<path d="M98.695 54.99C95.5717 52.8733 91.8916 53.473 88.6327 55.3541C85.3738 57.2352 66.6628 73.2334 66.6628 73.2334L48.2445 73.237C47.3879 73.237 46.4598 72.2732 46.4598 71.4201C46.4598 70.4171 47.3343 69.6354 48.2445 69.6354H59.5132C63.4575 69.6354 67.8729 67.0654 67.8729 62.4965C67.8729 57.6421 63.4575 55.3577 59.5132 55.3577C52.6706 55.3577 51.3392 55.3862 51.3392 55.3862C48.5979 55.3862 45.8173 55.222 43.6756 54.0762C40.8201 52.6128 37.5291 51.7847 34.0167 51.7847C28.12 51.7847 22.8408 54.1369 19.2214 57.8456L0 76.7707L21.4166 98.1873L28.5555 91.0485H64.7032C68.3012 91.0485 71.7743 89.7278 74.462 87.3398L98.9377 59.8837C100.433 58.5559 100.348 56.1144 98.695 54.99Z" fill="#CBAE60"/>
</g>
<defs>
<clipPath id="clip0">
<rect width="100" height="100" fill="white"/>
</clipPath>
</defs>
</svg>
