<svg width="100" height="96" viewBox="0 0 100 96" fill="none" xmlns="http://www.w3.org/2000/svg">
<path d="M9.91785 23.7482V29.2718C11.3133 26.8414 16.4913 25.0368 22.6667 25.0368C28.8397 25.0368 34.0161 26.8401 35.414 29.2691V23.7483C35.414 20.7704 29.7064 18.3564 22.6659 18.3564C15.6254 18.3564 9.91785 20.7703 9.91785 23.7482Z" fill="#CBAE60"/>
<path d="M9.81287 94.7916C9.81287 95.371 10.2827 95.8411 10.8623 95.8411H34.2595C34.8391 95.8411 35.309 95.371 35.309 94.7916V35.0453C33.9111 32.6164 28.7348 30.813 22.5618 30.813C16.3863 30.813 11.2084 32.6178 9.81287 35.048V94.7916Z" fill="#CBAE60"/>
<path d="M0 62.1344V94.7913C0 95.3708 0.469849 95.8408 1.04947 95.8408H6.66373C7.24336 95.8408 7.71321 95.3708 7.71321 94.7913V62.1344C7.71321 61.5549 7.24336 61.085 6.66373 61.085H1.04947C0.469849 61.085 0 61.5549 0 62.1344Z" fill="#CBAE60"/>
<path d="M29.0613 14.8851C29.0414 15.1377 29.0452 15.3651 29.0584 15.56C29.0658 15.658 29.0726 15.7471 29.0834 15.829C29.0964 15.9118 29.1063 15.9845 29.1198 16.0509C29.1699 16.3137 29.2259 16.4456 29.2259 16.4456C29.2259 16.4456 29.309 16.3292 29.4726 16.1393C29.5541 16.0446 29.6595 15.9325 29.7792 15.8071C29.8426 15.745 29.9066 15.6793 29.9804 15.6125C30.0504 15.5444 30.1248 15.474 30.2077 15.4031C30.3697 15.2605 30.556 15.114 30.7523 14.9634C30.8558 14.8907 30.9572 14.8147 31.0668 14.7407C31.1789 14.6684 31.2871 14.592 31.4074 14.5207C31.8794 14.231 32.4102 13.9537 33.0047 13.7157C34.19 13.2349 35.5935 12.8835 37.1687 12.6329C37.9561 12.508 38.7822 12.4031 39.6391 12.3142C39.8549 12.2948 40.0713 12.2754 40.2885 12.2557C40.5344 12.2293 40.7809 12.2027 41.0282 12.1762C41.494 12.1282 42.0843 12.0375 42.6178 11.9444C43.68 11.7545 44.7469 11.4853 45.787 11.1278C46.8281 10.7737 47.843 10.3223 48.7916 9.7771C49.7393 9.22833 50.6173 8.57724 51.3655 7.85384C52.1161 7.13369 52.7223 6.32748 53.1677 5.54227C53.6139 4.75338 53.89 3.97929 54.0567 3.29744C54.2221 2.61287 54.2821 2.01646 54.2941 1.52751C54.3121 1.04087 54.282 0.659384 54.2564 0.399535C54.2285 0.139475 54.2035 0 54.2035 0C54.2035 0 54.0957 0.0951873 53.9123 0.274962C53.8194 0.364272 53.7036 0.472578 53.5767 0.601033C53.5112 0.663477 53.4404 0.730538 53.3652 0.802217C53.2938 0.874736 53.2149 0.949354 53.1319 1.02691C52.7992 1.33724 52.4082 1.70004 51.9574 2.06054C51.5065 2.42134 51.0041 2.78152 50.4503 3.10203C49.8929 3.42139 49.2979 3.71409 48.6415 3.96816C47.9866 4.2236 47.2814 4.45302 46.5245 4.66344C45.7656 4.87197 44.9555 5.05762 44.1123 5.23918C43.2672 5.41539 42.3908 5.58865 41.4935 5.74912C41.0466 5.82615 40.6562 5.90539 40.1395 5.9905L39.7737 6.05556L39.4111 6.12546C39.3941 6.12882 39.3773 6.13207 39.3603 6.13543C39.4921 5.9375 39.6139 5.73925 39.7256 5.54227C40.1718 4.75338 40.4479 3.97929 40.6145 3.29744C40.78 2.61287 40.84 2.01646 40.8519 1.52751C40.87 1.04087 40.8399 0.659384 40.8142 0.399535C40.7863 0.139475 40.7614 0 40.7614 0C40.7614 0 40.6535 0.0951873 40.4702 0.274962C40.3772 0.364272 40.2614 0.472578 40.1345 0.601033C40.0689 0.663477 39.9982 0.730538 39.923 0.802217C39.8516 0.874736 39.7728 0.949354 39.6897 1.02691C39.3571 1.33724 38.966 1.70004 38.5152 2.06054C38.0643 2.42134 37.5619 2.78152 37.0079 3.10203C36.4506 3.42139 35.8557 3.71409 35.1993 3.96816C34.5444 4.2236 33.8392 4.45302 33.0823 4.66344C32.3234 4.87197 31.5134 5.05762 30.6701 5.23918C29.8251 5.41539 28.9487 5.58865 28.0514 5.74912C27.6044 5.82615 27.2139 5.90539 26.6972 5.9905L26.3314 6.05556L25.9688 6.12546C25.6978 6.17951 25.4284 6.2281 25.1604 6.29149C24.0861 6.53496 23.0328 6.87919 22.0407 7.31567C21.0488 7.75204 20.1183 8.28716 19.2997 8.90331C18.4806 9.51799 17.7764 10.2138 17.2244 10.9319C16.6694 11.648 16.2762 12.3932 16.0212 13.073C15.765 13.7544 15.6487 14.3757 15.619 14.8852C15.5991 15.1378 15.6029 15.3652 15.6161 15.5601C15.6235 15.6581 15.6303 15.7472 15.6411 15.8291C15.6541 15.9119 15.664 15.9846 15.6775 16.051C15.7275 16.3139 15.7836 16.4457 15.7836 16.4457C15.7836 16.4457 15.8668 16.3293 16.0303 16.1394C16.1118 16.0447 16.2171 15.9326 16.337 15.8072C16.4003 15.7451 16.4643 15.6794 16.5382 15.6126C16.6082 15.5445 16.6826 15.4741 16.7655 15.4032C16.9276 15.2606 17.1138 15.1141 17.3101 14.9635C17.4136 14.8908 17.5151 14.8148 17.6245 14.7408C17.7366 14.6685 17.8448 14.5921 17.9651 14.5208C18.4371 14.2311 18.968 13.9538 19.5624 13.7158C20.7478 13.235 22.1512 12.8836 23.7264 12.633C24.5138 12.5081 25.3399 12.4032 26.1968 12.3143C26.4125 12.2949 26.629 12.2755 26.8461 12.2559C27.092 12.2294 27.3387 12.2029 27.5858 12.1763C28.0517 12.1283 28.642 12.0376 29.1756 11.9445C29.4841 11.8893 29.793 11.8266 30.1017 11.7579C29.8324 12.2064 29.6212 12.6523 29.4634 13.0731C29.2072 13.7544 29.0909 14.3756 29.0613 14.8851Z" fill="#CBAE60"/>
<path d="M89.4528 95.841H98.9505C99.5302 95.841 100 95.371 100 94.7916V66.7303V61.085V50.8837C100 50.0424 99.0598 49.5432 98.3628 50.0143L84.1931 59.5928C83.4961 60.0639 82.5559 59.5645 82.5559 58.7233V50.8839C82.5559 50.0425 81.6157 49.5433 80.9187 50.0144L66.7489 59.5929C66.052 60.064 65.1117 59.5646 65.1117 58.7234V50.884C65.1117 50.0427 64.1715 49.5434 63.4746 50.0145L47.3636 60.905C47.19 61.0223 46.9853 61.085 46.7758 61.085H38.5663C37.9866 61.085 37.5168 61.555 37.5168 62.1345V94.7914C37.5168 95.3709 37.9866 95.8408 38.5663 95.8408H72.6611C73.2407 95.8408 73.7106 95.3709 73.7106 94.7914V85.239C73.7106 84.6596 74.1804 84.1896 74.7601 84.1896H87.3537C87.9334 84.1896 88.4032 84.6596 88.4032 85.239V94.7915C88.4033 95.371 88.8732 95.841 89.4528 95.841ZM50.6683 76.5514C50.6683 77.131 50.1984 77.6009 49.6188 77.6009H43.9058C43.3261 77.6009 42.8563 77.131 42.8563 76.5514V70.8383C42.8563 70.2587 43.3261 69.7888 43.9058 69.7888H49.6189C50.1985 69.7888 50.6684 70.2587 50.6684 70.8383V76.5514H50.6683ZM61.6764 76.5514C61.6764 77.131 61.2063 77.6009 60.6269 77.6009H54.9137C54.3341 77.6009 53.8642 77.131 53.8642 76.5514V70.8383C53.8642 70.2587 54.3341 69.7888 54.9137 69.7888H60.6268C61.2064 69.7888 61.6763 70.2587 61.6763 70.8383V76.5514H61.6764ZM72.6842 76.5514C72.6842 77.131 72.2144 77.6009 71.6347 77.6009H65.9216C65.342 77.6009 64.8721 77.131 64.8721 76.5514V70.8383C64.8721 70.2587 65.342 69.7888 65.9216 69.7888H71.6347C72.2144 69.7888 72.6842 70.2587 72.6842 70.8383V76.5514ZM83.6925 76.5514C83.6925 77.131 83.2224 77.6009 82.643 77.6009H76.9297C76.3503 77.6009 75.8803 77.131 75.8803 76.5514V70.8383C75.8803 70.2587 76.3503 69.7888 76.9297 69.7888H82.643C83.2224 69.7888 83.6925 70.2587 83.6925 70.8383V76.5514ZM87.9377 77.6009C87.3581 77.6009 86.8882 77.131 86.8882 76.5514V70.8383C86.8882 70.2587 87.3581 69.7888 87.9377 69.7888H93.6508C94.2304 69.7888 94.7003 70.2587 94.7003 70.8383V76.5514C94.7003 77.131 94.2304 77.6009 93.6508 77.6009H87.9377Z" fill="#CBAE60"/>
</svg>
