<svg width="100" height="91" viewBox="0 0 100 91" fill="none" xmlns="http://www.w3.org/2000/svg">
<path d="M97.2949 35.7891C97.2207 35.7813 97.1465 35.7793 97.0703 35.7793C86.8471 35.7793 13.4834 35.7793 2.92969 35.7793C2.85352 35.7793 2.7793 35.7813 2.70508 35.7891C1.19141 35.9023 0 37.168 0 38.709C0 40.3281 1.3125 41.6387 2.92969 41.6387H6L13.2637 88.0977C13.4863 89.5234 14.7148 90.5762 16.1582 90.5762H83.8418C85.2852 90.5762 86.5137 89.5234 86.7363 88.0977L94 41.6387H97.0703C98.6875 41.6387 100 40.3281 100 38.709C100 37.168 98.8086 35.9023 97.2949 35.7891ZM33.5898 77.1211C31.9785 77.2539 30.5625 76.0547 30.4297 74.4434L28.6074 52.3945C28.4746 50.7832 29.6738 49.3672 31.2852 49.2344C32.8984 49.1016 34.3145 50.3008 34.4473 51.9121L36.2695 73.9609C36.4023 75.5723 35.2031 76.9883 33.5898 77.1211ZM52.9297 74.2012C52.9297 75.8184 51.6172 77.1309 50 77.1309C48.3828 77.1309 47.0703 75.8184 47.0703 74.2012V52.1543C47.0703 50.5352 48.3828 49.2246 50 49.2246C51.6172 49.2246 52.9297 50.5352 52.9297 52.1543V74.2012ZM71.3926 52.3945L69.5703 74.4434C69.4434 75.9727 68.1621 77.1309 66.6543 77.1309C66.5723 77.1309 66.4922 77.1269 66.4102 77.1211C64.7969 76.9883 63.5977 75.5723 63.7305 73.9609L65.5527 51.9121C65.6855 50.3008 67.1016 49.0996 68.7148 49.2344C70.3262 49.3672 71.5254 50.7832 71.3926 52.3945Z" fill="#CBAE60"/>
<path d="M86.8965 29.9297H80.4922L69.8672 5.85938H64.7637C63.1465 5.85938 61.834 4.54883 61.834 2.92969C61.834 1.3125 63.1465 0 64.7637 0H71.7773C72.9375 0 73.9883 0.685547 74.457 1.74805L86.8965 29.9297Z" fill="#CBAE60"/>
<path d="M38.166 2.92969C38.166 4.54883 36.8535 5.85938 35.2363 5.85938H30.1328L19.5078 29.9297H13.1035L25.543 1.74805C26.0117 0.685547 27.0625 0 28.2227 0H35.2363C36.8535 0 38.166 1.3125 38.166 2.92969Z" fill="#CBAE60"/>
</svg>
