<svg width="97" height="100" viewBox="0 0 97 100" fill="none" xmlns="http://www.w3.org/2000/svg">
<path fill-rule="evenodd" clip-rule="evenodd" d="M72.414 29.3101V20.6895H86.207V29.3101C86.207 33.119 83.1194 36.2067 79.3104 36.2067C75.5015 36.2067 72.414 33.119 72.414 29.3101Z" fill="#CBAE60"/>
<path d="M43.1036 10.3449C44.0558 10.3449 44.8278 9.57292 44.8278 8.62068C44.8278 7.66843 44.0558 6.89648 43.1036 6.89648C42.1513 6.89648 41.3794 7.66843 41.3794 8.62068C41.3794 9.57292 42.1513 10.3449 43.1036 10.3449Z" fill="#CBAE60"/>
<path fill-rule="evenodd" clip-rule="evenodd" d="M43.1036 13.793C51.6696 13.8025 58.6113 20.7442 58.6208 29.3102H27.5864C27.5959 20.7442 34.5376 13.8025 43.1036 13.793Z" fill="#CBAE60"/>
<path fill-rule="evenodd" clip-rule="evenodd" d="M24.1381 34.4825C24.1381 33.5303 24.9101 32.7583 25.8623 32.7583H60.345C61.2972 32.7583 62.0692 33.5303 62.0692 34.4825C62.0692 35.4347 61.2972 36.2067 60.345 36.2067H25.8623C24.9101 36.2067 24.1381 35.4347 24.1381 34.4825Z" fill="#CBAE60"/>
<path fill-rule="evenodd" clip-rule="evenodd" d="M0.000290699 28.2417C0.00373547 27.8912 0.113148 27.5496 0.314093 27.2624C0.57524 26.8815 0.981887 26.6251 1.43824 26.5538C1.87359 26.4747 2.32256 26.5748 2.68311 26.8313L16.3694 37.7727C15.4626 38.4993 14.7543 39.4436 14.3107 40.5176L0.690066 29.6365C0.24733 29.3109 -0.00987959 28.7909 0.000290699 28.2417Z" fill="#CBAE60"/>
<path fill-rule="evenodd" clip-rule="evenodd" d="M29.3105 100C25.5016 100 22.4139 96.9124 22.4139 93.1035C25.1274 93.1035 27.6825 91.826 29.3105 89.6553C30.9386 91.826 33.4936 93.1035 36.2071 93.1035C36.2071 96.9124 33.1193 100 29.3105 100Z" fill="#CBAE60"/>
<path fill-rule="evenodd" clip-rule="evenodd" d="M84.4829 100C80.674 100 77.5863 96.9124 77.5863 93.1035C80.2998 93.1035 82.8548 91.826 84.4829 89.6553C86.111 91.826 88.666 93.1035 91.3795 93.1035C91.3795 96.9124 88.2918 100 84.4829 100Z" fill="#CBAE60"/>
<path fill-rule="evenodd" clip-rule="evenodd" d="M96.5519 84.4828C96.5519 87.3395 94.2362 89.6552 91.3795 89.6552C88.5228 89.6552 86.2071 87.3395 86.2071 84.4828V53.4483C86.2071 52.4961 85.4351 51.7241 84.4829 51.7241C83.5306 51.7241 82.7587 52.4961 82.7587 53.4483V84.4828C82.7587 87.3395 80.443 89.6552 77.5863 89.6552C74.7296 89.6552 72.4139 87.3395 72.4139 84.4828V53.4483C72.4139 52.4961 71.6419 51.7241 70.6897 51.7241C69.7374 51.7241 68.9655 52.4961 68.9655 53.4483V84.4828C68.9655 87.3395 66.6498 89.6552 63.7931 89.6552C60.9364 89.6552 58.6206 87.3395 58.6206 84.4828V53.4483C58.6206 52.4961 57.8487 51.7241 56.8965 51.7241C55.9442 51.7241 55.1723 52.4961 55.1723 53.4483V84.4828C55.1723 87.3395 52.8566 89.6552 49.9999 89.6552C47.1431 89.6552 44.8274 87.3395 44.8274 84.4828V53.4483C44.8274 52.4961 44.0555 51.7241 43.1032 51.7241C42.151 51.7241 41.3791 52.4961 41.3791 53.4483V84.4828C41.3791 87.3395 39.0633 89.6552 36.2066 89.6552C33.3499 89.6552 31.0342 87.3395 31.0342 84.4828V53.4483C31.0342 52.4961 30.2623 51.7241 29.31 51.7241C28.3578 51.7241 27.5859 52.4961 27.5859 53.4483V84.4828C27.5859 87.3395 25.2701 89.6552 22.4134 89.6552C19.5567 89.6552 17.241 87.3395 17.241 84.4828V43.1035C17.241 41.199 18.7849 39.6553 20.6892 39.6553H93.103C95.0075 39.6553 96.5512 41.1992 96.5512 43.1035V84.4828H96.5519Z" fill="#CBAE60"/>
<path fill-rule="evenodd" clip-rule="evenodd" d="M96.5519 25.8619V27.5861C96.5434 30.4392 94.2326 32.7499 91.3795 32.7585H89.052C89.4544 31.6535 89.6586 30.4862 89.6555 29.3103H91.3797C92.3319 29.3103 93.1039 28.5383 93.1039 27.5861V25.8619C93.1039 24.9096 92.3319 24.1377 91.3797 24.1377H89.6555V20.6895H91.3797C94.2326 20.698 96.5434 23.0088 96.5519 25.8619Z" fill="#CBAE60"/>
<path fill-rule="evenodd" clip-rule="evenodd" d="M74.1381 13.793C73.1859 13.793 72.4139 13.0211 72.4139 12.0688C72.3823 9.85829 73.0911 7.70055 74.4276 5.93961C75.3859 4.74641 75.8938 3.25416 75.8621 1.72403C75.8623 0.771958 76.6343 0 77.5865 0C78.5387 0 79.3107 0.771958 79.3107 1.72419C79.3423 3.93475 78.6335 6.09249 77.297 7.85343C76.3387 9.04663 75.8308 10.5389 75.8625 12.069C75.8625 12.5263 75.6809 12.9648 75.3576 13.2881C75.0339 13.6115 74.5954 13.793 74.1381 13.793Z" fill="#CBAE60"/>
<path fill-rule="evenodd" clip-rule="evenodd" d="M82.7588 13.793C81.8066 13.793 81.0346 13.0211 81.0346 12.0688C81.003 9.85829 81.7118 7.70055 83.0484 5.93961C84.0067 4.74641 84.5145 3.25416 84.4829 1.72403C84.4829 0.771958 85.2548 0 86.2071 0C87.1593 0 87.9312 0.771958 87.9312 1.72419C87.9629 3.93475 87.2541 6.09249 85.9175 7.85343C84.9592 9.04663 84.4514 10.5389 84.483 12.069C84.483 12.5263 84.3014 12.9648 83.9781 13.2881C83.6546 13.6115 83.216 13.793 82.7588 13.793Z" fill="#CBAE60"/>
</svg>
