<svg width="104" height="80" viewBox="0 0 104 80" fill="none" xmlns="http://www.w3.org/2000/svg">
<path d="M21.3829 20.2542C19.4585 22.1418 19.0413 25.973 20.1781 31.3611C20.2263 31.5893 20.29 32.0097 20.3405 32.5567C24.2512 31.658 29.8429 30.934 37.716 30.934L38.0428 30.9353L38.3574 30.934C38.6208 30.934 38.88 30.9353 39.1383 30.9368L39.3553 30.2947L28.1673 30.3897L27.1552 25.1373L40.6455 25.8784L40.4277 28.7194C42.0407 27.5537 48.3275 24.054 65.6427 24.054L65.9695 24.0553L66.2843 24.054C75.6257 24.054 81.7558 25.0728 85.6757 26.194C85.695 23.4811 85.0819 21.466 83.8458 20.2538L84.4482 19.101L90.6508 18.4813V12.7654C90.6219 12.7644 90.5943 12.7623 90.5644 12.7623H84.7232L81.2871 16.3267L77.3502 4.59503L77.3169 4.50927C77.3169 4.50927 72.375 0 52.935 0C52.8267 0 52.7213 0.000842964 52.6145 0.00126439C52.5068 0.00105368 52.4017 0 52.2938 0C32.8538 0 27.9121 4.50927 27.9121 4.50927L27.8786 4.59503L23.9416 16.3267L20.5059 12.7623H14.6643C14.6344 12.7623 14.6068 12.7644 14.5779 12.7654V18.4813L20.7807 19.101L21.3829 20.2542ZM31.3411 6.37746C31.8697 6.0557 33.1987 5.45032 36.2606 4.90478C40.1883 4.20479 45.5825 3.84995 52.2938 3.84995C52.4019 3.84995 52.5077 3.85016 52.6145 3.85058C52.7215 3.85016 52.8269 3.84995 52.935 3.84995C59.6462 3.84995 65.0407 4.20479 68.9682 4.90478C72.0296 5.45032 73.359 6.0557 73.8879 6.37746L78.052 18.7857H52.6145H27.1769L31.3411 6.37746Z" fill="#CBAE60"/>
<path d="M69.8705 51.8786L76.0735 51.2591V45.5433C76.0446 45.5422 76.0166 45.5403 75.9867 45.5403H70.1455L66.7094 49.1043L62.7724 37.3729L62.7387 37.2871C62.7387 37.2871 57.7973 32.7778 38.3572 32.7778C38.2489 32.7778 38.1438 32.7787 38.0365 32.7791C37.9291 32.7789 37.8239 32.7778 37.7158 32.7778C18.2758 32.7778 13.3342 37.2871 13.3342 37.2871L13.3005 37.3729L9.36369 49.1043L5.92779 45.5403H0.0866033C0.0566819 45.5403 0.0290785 45.5422 0 45.5433V51.2591L6.20278 51.8786L6.80499 53.0316C4.88055 54.9192 4.46333 58.7504 5.60013 64.1385C5.68821 64.5555 5.82834 65.6104 5.84414 66.9168V79.2457C5.84414 79.4132 5.97963 79.5487 6.14694 79.5487H15.809C15.9763 79.5487 16.112 79.4132 16.112 79.2457L16.1133 69.3746H38.0368H59.9602L59.9617 79.2457C59.9617 79.4132 60.0972 79.5487 60.2647 79.5487H69.9268C70.0943 79.5487 70.2298 79.4132 70.2298 79.2457V66.9168C70.2454 65.6106 70.3853 64.5558 70.4738 64.1385C71.6106 58.7504 71.1932 54.9192 69.2687 53.0316L69.8705 51.8786ZM25.7298 63.0641L13.5895 63.1674L12.5775 57.9147L26.0678 58.656L25.7298 63.0641ZM12.5992 51.5634L16.7633 39.1549C17.292 38.8331 18.6212 38.2279 21.6828 37.6822C25.6105 36.9822 31.0048 36.6274 37.716 36.6274C37.8241 36.6274 37.9297 36.6278 38.0368 36.628C38.1438 36.6278 38.2494 36.6274 38.3575 36.6274C45.0687 36.6274 50.4632 36.9822 54.3907 37.6822C57.4523 38.2279 58.7813 38.8331 59.3102 39.1549L63.4743 51.5634H38.0368H12.5992ZM62.4839 63.1674L50.3437 63.0641L50.0057 58.656L63.496 57.9147L62.4839 63.1674Z" fill="#CBAE60"/>
<path d="M104 44.3792V38.6634C103.971 38.6623 103.943 38.6602 103.914 38.6602H98.0719L94.6362 42.2247L90.6993 30.493L90.6655 30.4072C90.6655 30.4072 85.7241 25.8979 66.2841 25.8979C66.1758 25.8979 66.0704 25.8988 65.9636 25.8992C65.8561 25.899 65.7508 25.8979 65.6431 25.8979C46.2029 25.8979 41.2614 30.4072 41.2614 30.4072L41.2279 30.493L41.0697 30.9643C43.3637 31.0155 45.4416 31.1314 47.3222 31.2945C47.9497 31.1314 48.702 30.9643 49.6099 30.8025C53.5374 30.1025 58.9319 29.7477 65.6431 29.7477C65.751 29.7477 65.8568 29.7479 65.9636 29.7483C66.0706 29.7479 66.1764 29.7477 66.2841 29.7477C72.9953 29.7477 78.3898 30.1025 82.3173 30.8025C85.3792 31.3481 86.7081 31.9534 87.2366 32.2752L91.4011 44.6835H77.9125L77.9167 45.5432L77.8826 51.7763L91.4226 51.0352L90.4106 56.2877L78.2703 56.1844L78.0194 52.8948L71.8758 53.5313C72.9652 55.6798 73.2204 58.6812 72.6434 62.4951H87.8873L87.8886 72.366C87.8886 72.5333 88.024 72.669 88.1916 72.669H97.8536C98.0211 72.669 98.1566 72.5331 98.1566 72.366V60.0371C98.1726 58.7311 98.3126 57.6763 98.4006 57.2589C99.5376 51.8705 99.1204 48.0397 97.196 46.1519L97.7976 44.9991L104 44.3792Z" fill="#CBAE60"/>
</svg>
