<svg width="100" height="100" viewBox="0 0 100 100" fill="none" xmlns="http://www.w3.org/2000/svg">
<path fill-rule="evenodd" clip-rule="evenodd" d="M1.78065 0H8.90326C9.88673 0 10.6839 0.797172 10.6839 1.78065V8.90326C10.6839 9.88673 9.88673 10.6839 8.90326 10.6839H1.78065C0.797172 10.6839 0 9.88673 0 8.90326V1.78065C0 0.797172 0.797172 0 1.78065 0Z" fill="#CBAE60"/>
<path fill-rule="evenodd" clip-rule="evenodd" d="M37.3939 10.6839C38.3773 10.6839 39.1745 9.88673 39.1745 8.90326V1.78065C39.1745 0.797172 38.3773 0 37.3939 0H16.0259C15.0424 0 14.2452 0.797172 14.2452 1.78065V8.90326C14.2452 9.88673 15.0424 10.6839 16.0259 10.6839H37.3939Z" fill="#CBAE60"/>
<path fill-rule="evenodd" clip-rule="evenodd" d="M30.2712 24.929H51.6392C52.6227 24.929 53.4199 24.1319 53.4199 23.1484V16.0258C53.4199 15.0423 52.6227 14.2451 51.6392 14.2451H30.2712C29.2878 14.2451 28.4906 15.0423 28.4906 16.0258V23.1484C28.4906 24.1319 29.2878 24.929 30.2712 24.929Z" fill="#CBAE60"/>
<path fill-rule="evenodd" clip-rule="evenodd" d="M44.5165 39.1746H57.2411L67.6651 35.8662V30.2714C67.6651 29.2879 66.8679 28.4907 65.8845 28.4907H44.5165C43.533 28.4907 42.7358 29.2879 42.7358 30.2714V37.394C42.7358 38.3775 43.533 39.1746 44.5165 39.1746Z" fill="#CBAE60"/>
<path fill-rule="evenodd" clip-rule="evenodd" d="M56.9811 16.0258V23.1484C56.9811 24.1319 57.7783 24.929 58.7617 24.929H80.1297C81.1132 24.929 81.9104 24.1319 81.9104 23.1484V16.0258C81.9104 15.0423 81.1132 14.2451 80.1297 14.2451H58.7617C57.7783 14.2451 56.9811 15.0423 56.9811 16.0258Z" fill="#CBAE60"/>
<path fill-rule="evenodd" clip-rule="evenodd" d="M1.78065 24.929H23.1486C24.1321 24.929 24.9293 24.1319 24.9293 23.1484V16.0258C24.9293 15.0423 24.1321 14.2451 23.1486 14.2451H1.78065C0.797172 14.2451 0 15.0423 0 16.0258V23.1484C0 24.1319 0.797172 24.929 1.78065 24.929Z" fill="#CBAE60"/>
<path fill-rule="evenodd" clip-rule="evenodd" d="M80.1298 28.4907H73.0072C72.0237 28.4907 71.2266 29.2879 71.2266 30.2714V34.7356L81.9105 31.3399V30.2715C81.9105 29.2879 81.1131 28.4907 80.1298 28.4907Z" fill="#CBAE60"/>
<path fill-rule="evenodd" clip-rule="evenodd" d="M96.7148 30.3819L84.3908 34.2993H84.3623L48.9486 45.5441C48.3607 45.7279 47.872 46.1415 47.5935 46.6909C47.3154 47.2222 47.2646 47.8434 47.4528 48.4128C49.485 54.4947 52.5253 60.1916 56.4469 65.265L66.7909 54.921C68.8769 52.8357 72.2584 52.8357 74.3444 54.921L75.0566 55.6333C77.1419 57.7193 77.1419 61.1008 75.0566 63.1868L64.7235 73.5414C69.7964 77.4648 75.4933 80.5065 81.5757 82.539C82.1451 82.7262 82.7659 82.6754 83.2976 82.3983C83.846 82.1208 84.2589 81.6333 84.4425 81.0468L99.6103 33.2645C99.8579 32.4459 99.6339 31.5575 99.0279 30.9541C98.4217 30.3509 97.5324 30.1308 96.7148 30.3819Z" fill="#CBAE60"/>
<path fill-rule="evenodd" clip-rule="evenodd" d="M30.9976 92.874C29.6074 94.2647 29.6074 96.5191 30.9976 97.9098L32.0785 98.9907C33.4874 100.336 35.7054 100.336 37.1143 98.9907L55.0989 81.006L48.9859 74.8877L30.9976 92.874Z" fill="#CBAE60"/>
<path fill-rule="evenodd" clip-rule="evenodd" d="M72.5495 58.1579L71.8373 57.4456C71.142 56.7505 70.0148 56.7505 69.3194 57.4456L52.9497 73.8135L56.1887 77.0525L72.5565 60.6828C72.8915 60.3476 73.0791 59.8928 73.0778 59.4188C73.0767 58.9451 72.8863 58.4912 72.5495 58.1579Z" fill="#CBAE60"/>
<path fill-rule="evenodd" clip-rule="evenodd" d="M45.5154 53.4197C44.8992 51.9168 44.4186 50.5885 44.0696 49.5255C43.2233 46.9456 44.2809 44.1241 46.6141 42.7358H30.2713C29.2878 42.7358 28.4906 43.533 28.4906 44.5165V51.6391C28.4906 52.6226 29.2878 53.4197 30.2713 53.4197H45.5154Z" fill="#CBAE60"/>
<path fill-rule="evenodd" clip-rule="evenodd" d="M23.1485 42.7358H1.78065C0.797172 42.7358 0 43.533 0 44.5165V51.6391C0 52.6226 0.797172 53.4197 1.78065 53.4197H23.1486C24.1321 53.4197 24.9293 52.6226 24.9293 51.6391V44.5165C24.9293 43.533 24.1319 42.7358 23.1485 42.7358Z" fill="#CBAE60"/>
<path fill-rule="evenodd" clip-rule="evenodd" d="M1.78065 28.4907H8.90326C9.88673 28.4907 10.6839 29.2879 10.6839 30.2714V37.394C10.6839 38.3775 9.88673 39.1746 8.90326 39.1746H1.78065C0.797172 39.1746 0 38.3775 0 37.394V30.2714C0 29.2879 0.797172 28.4907 1.78065 28.4907Z" fill="#CBAE60"/>
<path fill-rule="evenodd" clip-rule="evenodd" d="M37.3939 39.1746C38.3773 39.1746 39.1745 38.3775 39.1745 37.394V30.2714C39.1745 29.2879 38.3773 28.4907 37.3939 28.4907H16.0259C15.0424 28.4907 14.2452 29.2879 14.2452 30.2714V37.394C14.2452 38.3775 15.0424 39.1746 16.0259 39.1746H37.3939Z" fill="#CBAE60"/>
</svg>
