<svg width="100" height="100" viewBox="0 0 100 100" fill="none" xmlns="http://www.w3.org/2000/svg">
<path d="M73.4375 88.0859H79.2969V100H73.4375V88.0859Z" fill="#CBAE60"/>
<path d="M52.9297 11.7188V100H67.5781V82.2266H85.1562V100H100V11.7188L76.3672 0L52.9297 11.7188ZM85.1562 23.6328H91.0156V29.4922H85.1562V23.6328ZM85.1562 35.3516H91.0156V41.2109H85.1562V35.3516ZM85.1562 47.0703H91.0156V52.9297H85.1562V47.0703ZM85.1562 58.7891H91.0156V64.6484H85.1562V58.7891ZM85.1562 70.5078H91.0156V76.3672H85.1562V70.5078ZM67.5781 76.3672H61.7188V70.5078H67.5781V76.3672ZM67.5781 64.6484H61.7188V58.7891H67.5781V64.6484ZM67.5781 52.9297H61.7188V47.0703H67.5781V52.9297ZM67.5781 41.2109H61.7188V35.3516H67.5781V41.2109ZM67.5781 29.4922H61.7188V23.6328H67.5781V29.4922ZM79.2969 76.3672H73.4375V70.5078H79.2969V76.3672ZM79.2969 64.6484H73.4375V58.7891H79.2969V64.6484ZM79.2969 52.9297H73.4375V47.0703H79.2969V52.9297ZM79.2969 41.2109H73.4375V35.3516H79.2969V41.2109ZM79.2969 29.4922H73.4375V23.6328H79.2969V29.4922Z" fill="#CBAE60"/>
<path d="M20.7031 88.0859H26.5625V100H20.7031V88.0859Z" fill="#CBAE60"/>
<path d="M14.8438 82.2266H32.4219V100H47.0703V47.0703L23.6328 35.3516L0 47.0703V100H14.8438V82.2266ZM32.4219 58.7891H38.2812V64.6484H32.4219V58.7891ZM32.4219 70.5078H38.2812V76.3672H32.4219V70.5078ZM20.7031 58.7891H26.5625V64.6484H20.7031V58.7891ZM20.7031 70.5078H26.5625V76.3672H20.7031V70.5078ZM8.98438 58.7891H14.8438V64.6484H8.98438V58.7891ZM8.98438 70.5078H14.8438V76.3672H8.98438V70.5078Z" fill="#CBAE60"/>
</svg>
