<svg width="88" height="100" viewBox="0 0 88 100" fill="none" xmlns="http://www.w3.org/2000/svg">
<path d="M0.555791 17.2471C-1.31022 11.5914 1.77262 5.47129 7.42898 3.60496C13.0853 1.73862 19.2051 4.82244 21.0711 10.4781L42.2961 74.8073C40.3181 74.2851 38.2146 74.1895 36.1146 74.5735L15.5661 12.2947C14.7014 9.67374 11.8662 8.24547 9.24548 9.11018C6.62457 9.97488 5.19631 12.81 6.06101 15.4308C6.56248 16.9508 5.73683 18.5901 4.21657 19.0915C2.69647 19.593 1.05742 18.7672 0.555791 17.2471ZM84.1818 67.7111L49.406 79.1852C50.6402 80.5864 51.6184 82.2521 52.2397 84.1342C52.2617 84.2014 52.2742 84.2692 52.2952 84.3365L85.9983 73.2163C87.5184 72.7148 88.3442 71.0756 87.8427 69.5557C87.3411 68.0352 85.7017 67.2094 84.1818 67.7111ZM49.4872 85.0431C51.4577 91.0148 48.2137 97.453 42.2422 99.4234C36.2704 101.394 29.8322 98.1501 27.8618 92.1783C25.8914 86.2065 29.1353 79.7684 35.1069 77.798C41.0786 75.8274 47.517 79.0713 49.4872 85.0431ZM44.0809 86.8267C43.0957 83.8409 39.8768 82.2192 36.8907 83.2043C33.9049 84.1893 32.283 87.4086 33.2682 90.3944C34.2533 93.3801 37.4724 95.002 40.4583 94.0171C43.4441 93.0318 45.066 89.8125 44.0809 86.8267ZM75.3932 24.0758L87.1998 59.8596C87.4506 60.6196 87.0377 61.4392 86.2775 61.69L49.1175 73.9506C48.3575 74.2014 47.5379 73.7885 47.2872 73.0284L35.4807 37.2446C35.2299 36.4845 35.6428 35.665 36.403 35.4142L73.5629 23.1535C74.323 22.903 75.1424 23.3157 75.3932 24.0758ZM70.4777 44.8624L57.8245 37.9008L51.801 51.0248L55.789 52.8603L58.3934 47.1827L63.0962 61.4362L67.597 59.9513L62.8949 45.6998L68.365 48.7108L70.4777 44.8624ZM59.4366 23.5142L51.8882 0.636499C51.7279 0.150552 51.2039 -0.1135 50.718 0.0469572L44.2456 2.18241L44.2139 2.24058L44.1596 2.21084L40.7448 3.33764L43.5569 11.8603L39.7051 13.1312L36.8932 4.60855L33.4771 5.73567L33.4513 5.79188L33.3909 5.7641L26.9605 7.88583C26.4744 8.04613 26.2106 8.57015 26.3709 9.05609L33.9195 31.934C34.0798 32.4199 34.6038 32.684 35.0897 32.5235L58.8475 24.6847C59.333 24.5242 59.597 24.0002 59.4366 23.5142Z" fill="#CBAE60"/>
</svg>
