<svg width="108" height="84" viewBox="0 0 108 84" fill="none" xmlns="http://www.w3.org/2000/svg">
<path d="M107.375 72.4375H65.4375V76.25C65.4345 77.2602 65.0318 78.2282 64.3175 78.9425C63.6032 79.6568 62.6352 80.0595 61.625 80.0625H46.375C45.3648 80.0595 44.3968 79.6568 43.6825 78.9425C42.9682 78.2282 42.5655 77.2602 42.5625 76.25V72.4375H0.625V78.1562C0.629526 79.6716 1.23349 81.1235 2.30498 82.195C3.37648 83.2665 4.82843 83.8705 6.34375 83.875H101.656C103.172 83.8705 104.624 83.2665 105.695 82.195C106.767 81.1235 107.37 79.6716 107.375 78.1562V72.4375Z" fill="#CBAE60"/>
<path d="M101.656 68.625V1.90625C101.656 1.40068 101.455 0.915819 101.098 0.558328C100.74 0.200837 100.256 0 99.75 0H8.25C7.74443 0 7.25957 0.200837 6.90208 0.558328C6.54459 0.915819 6.34375 1.40068 6.34375 1.90625V68.625H10.1562V5.71875C10.1562 5.21318 10.3571 4.72832 10.7146 4.37083C11.0721 4.01334 11.5569 3.8125 12.0625 3.8125H95.9375C96.4431 3.8125 96.9279 4.01334 97.2854 4.37083C97.6429 4.72832 97.8438 5.21318 97.8438 5.71875V68.625H101.656Z" fill="#CBAE60"/>
<path d="M94.0312 7.625H13.9688V68.625H94.0312V7.625ZM59.7188 22.875H63.5312V26.6875H59.7188V22.875ZM46.9335 22.3165L49.629 19.621L55.3477 25.3398C55.7051 25.6973 55.9058 26.182 55.9058 26.6875C55.9058 27.193 55.7051 27.6777 55.3477 28.0352L49.629 33.754L46.9335 31.0585L51.3046 26.6875L46.9335 22.3165ZM59.7188 45.75V49.5625H33.0312V45.75H59.7188ZM40.6562 41.9375V38.125H52.0938V41.9375H40.6562ZM40.7134 18.5993L44.4116 19.5257L40.5991 34.7757L36.9009 33.8493L40.7134 18.5993ZM36.8438 41.9375H33.0312V38.125H36.8438V41.9375ZM25.9648 28.0352C25.6074 27.6777 25.4067 27.193 25.4067 26.6875C25.4067 26.182 25.6074 25.6973 25.9648 25.3398L31.6835 19.621L34.379 22.3165L30.0079 26.6875L34.379 31.0585L31.6835 33.754L25.9648 28.0352ZM78.7812 57.1875H33.0312V53.375H78.7812V57.1875ZM63.5312 49.5625V45.75H71.1562V49.5625H63.5312ZM78.7812 49.5625H74.9688V45.75H78.7812V49.5625ZM78.7812 41.9375H55.9062V38.125H78.7812V41.9375ZM78.7812 34.3125H59.7188V30.5H78.7812V34.3125ZM78.7812 26.6875H67.3438V22.875H78.7812V26.6875Z" fill="#CBAE60"/>
<path d="M46.375 72.4375H61.625V76.25H46.375V72.4375Z" fill="#CBAE60"/>
</svg>
