<svg width="100" height="100" viewBox="0 0 100 100" fill="none" xmlns="http://www.w3.org/2000/svg">
<path d="M99.4337 48.7995C98.302 44.5744 95.5919 41.0428 91.8034 38.8559C88.015 36.669 83.6015 36.0858 79.3748 37.2209C75.1497 38.3525 71.618 41.0627 69.4311 44.8511L61.6208 58.3782L89.84 75.0103L97.7969 61.2281C99.9854 57.4397 100.567 53.0245 99.4337 48.7995ZM83.3265 46.6593C81.1381 46.6593 79.2797 47.7927 78.0914 49.8511L73.0563 57.5713C72.7364 58.0614 72.203 58.328 71.6596 58.328C71.3464 58.328 71.0313 58.2413 70.7513 58.0563C69.9796 57.553 69.763 56.5214 70.2663 55.7495L75.2547 48.1075C76.9897 45.0974 79.9498 43.3275 83.3299 43.3275C84.25 43.3275 84.9966 44.0742 84.9966 44.9943C84.9966 45.9144 84.2482 46.6593 83.3265 46.6593Z" fill="#CBAE60"/>
<path d="M59.9543 61.2646L51.7792 75.4251C49.5925 79.2135 49.0108 83.627 50.144 87.8537C51.2757 92.0789 53.9858 95.6105 57.7742 97.7974C60.2977 99.254 63.0994 99.9991 65.9361 99.9991C67.3595 99.9991 68.7896 99.8124 70.2013 99.4341C74.4265 98.3024 77.9581 95.5923 80.145 91.8039L88.1734 77.8967L59.9543 61.2646ZM79.6899 80.9534L74.2915 88.5953C72.6431 91.4636 69.4163 93.3238 65.9513 93.3238C65.0312 93.3238 64.2845 92.5771 64.2845 91.657C64.2845 90.7369 65.0296 89.9935 65.9496 89.9935C68.2279 89.9935 70.348 88.7719 71.4847 86.8018L76.9665 79.0299C77.4965 78.2799 78.5381 78.0999 79.2899 78.6299C80.0415 79.1616 80.22 80.2018 79.6899 80.9534Z" fill="#CBAE60"/>
<path d="M29.0042 4.96893C22.3773 -1.65797 11.5971 -1.65465 4.97018 4.96893C-1.65673 11.5958 -1.65673 22.376 4.97018 29.0012L16.7988 40.8298L40.8328 16.7958L29.0042 4.96893ZM17.547 29.7961C17.222 30.1211 16.7953 30.2844 16.3687 30.2844C15.942 30.2844 15.5154 30.1211 15.1904 29.7961L9.68518 24.2893C7.73519 22.3393 6.66001 19.746 6.66001 16.9874C6.66001 14.4823 7.34008 12.3423 8.68167 10.6322C9.25002 9.90717 10.2985 9.78042 11.0217 10.3488C11.7467 10.9171 11.8734 11.9638 11.3051 12.6888C10.435 13.8005 9.99338 15.2472 9.99338 16.989C9.99338 18.8573 10.7217 20.6124 12.0418 21.934L17.547 27.441C18.197 28.0895 18.197 29.1461 17.547 29.7961Z" fill="#CBAE60"/>
<path d="M55.0161 30.9819L43.1875 19.1533L19.1533 43.1873L30.9819 55.0159C34.2954 58.3294 38.6471 59.9845 42.9973 59.9845C47.349 59.9845 51.7025 58.3278 55.0142 55.0144C61.643 48.389 61.643 37.6071 55.0161 30.9819ZM51.3394 49.3092C51.0126 49.7558 50.506 49.9925 49.9927 49.9925C49.6511 49.9925 49.306 49.8892 49.0111 49.6709C48.2677 49.1275 48.106 48.0842 48.6494 47.3426C50.6828 44.5625 50.3744 40.4825 47.9461 38.054L42.4393 32.5472C41.7875 31.8954 41.7875 30.8421 42.4393 30.1903C43.091 29.5386 44.1443 29.5386 44.7961 30.1903L50.3029 35.6971C53.8626 39.2555 54.3195 45.2357 51.3394 49.3092Z" fill="#CBAE60"/>
</svg>
