<svg width="101" height="100" viewBox="0 0 101 100" fill="none" xmlns="http://www.w3.org/2000/svg">
<path d="M13.1861 17.8699C13.4986 17.9483 13.7846 18.1103 14.0125 18.338L39.4741 43.8001L44.0813 39.1932L18.6193 13.7312C18.3909 13.5031 18.2296 13.2162 18.1507 12.9028L16.5482 6.5147L5.925 0.441406L0.722916 5.64326L6.79804 16.2738L13.1861 17.8699Z" fill="#CBAE60"/>
<path d="M35.8274 75.9496L76.2309 35.5454C76.6735 35.1024 77.3156 34.9248 77.9228 35.0759C83.2424 36.4393 88.8928 35.2578 93.2223 31.88C97.5525 28.5019 100.071 23.3072 100.042 17.8159C100.042 17.4815 100.032 17.1445 100.011 16.8046L90.6132 26.2008C90.137 26.6775 89.4309 26.8446 88.7908 26.6311L78.1025 23.0678C77.5703 22.8916 77.1529 22.4741 76.9752 21.9424L73.4129 11.2539C73.1992 10.6147 73.3658 9.9083 73.8431 9.4312L83.2403 0.0342557C77.5815 -0.317793 72.0952 2.05968 68.4808 6.42782C64.8668 10.7969 63.5608 16.6313 64.9665 22.1235C65.1187 22.7315 64.9413 23.3735 64.4983 23.8163L24.0955 64.2177C23.6522 64.6573 23.0108 64.8356 22.4032 64.6868C20.9966 64.3256 19.55 64.1384 18.097 64.1327C10.4248 64.0821 3.56971 68.9187 1.04365 76.1647C-1.48104 83.41 0.883401 91.4598 6.92583 96.1887C12.9683 100.918 21.3502 101.279 27.7767 97.0867C34.2036 92.8943 37.2509 85.0779 35.3569 77.6415C35.2063 77.0345 35.3844 76.3915 35.8274 75.9496ZM22.4331 89.0728H13.7622L9.48573 81.9474L13.7622 74.821H22.4331L26.7087 81.9474L22.4331 89.0728ZM29.3081 68.2176L68.4989 29.0264L71.0174 31.5453L31.8266 70.7365L29.3081 68.2176Z" fill="#CBAE60"/>
<path d="M85.4354 99.0708C89.4032 100.563 93.8767 99.5952 96.8744 96.5978C99.8723 93.5994 100.84 89.1252 99.3474 85.1582L85.4354 99.0708Z" fill="#CBAE60"/>
<path d="M96.8746 81.2989L76.8667 61.2829C74.6597 63.1381 71.4008 62.997 69.3609 60.9597C67.3209 58.9229 67.1771 55.6648 69.029 53.4556L66.1955 50.6187L50.9004 65.9144L53.751 68.7649C55.958 66.9098 59.2174 67.0504 61.2561 69.087C63.2959 71.1243 63.4406 74.3828 61.5885 76.5922L81.5795 96.5938C81.7976 96.8119 82.0278 97.0139 82.2603 97.2105L97.4919 81.979C97.2957 81.746 97.0927 81.5168 96.8746 81.2989ZM86.3127 88.5502L68.4989 70.7363L71.0174 68.2174L88.8317 86.0321L86.3127 88.5502Z" fill="#CBAE60"/>
</svg>
