<svg width="21" height="25" viewBox="0 0 21 25" fill="none" xmlns="http://www.w3.org/2000/svg">
<path d="M10.271 11.9265C11.9254 11.9265 13.358 11.3389 14.5285 10.1794C15.699 9.02016 16.2924 7.60174 16.2924 5.96307C16.2924 4.32496 15.699 2.90635 14.5283 1.74672C13.3576 0.587655 11.9252 0 10.271 0C8.61635 0 7.18414 0.587655 6.0136 1.74691C4.84307 2.90616 4.24951 4.32477 4.24951 5.96307C4.24951 7.60174 4.84307 9.02035 6.0138 10.1796C7.18452 11.3387 8.61693 11.9265 10.271 11.9265Z" fill="#90A1B1"/>
<path d="M20.8069 19.0385C20.7731 18.556 20.7048 18.0297 20.6043 17.474C20.5028 16.9141 20.3722 16.3848 20.2158 15.901C20.0542 15.401 19.8345 14.9072 19.5629 14.4341C19.281 13.9429 18.9499 13.5152 18.5784 13.1633C18.1898 12.7952 17.7141 12.4992 17.1641 12.2832C16.6159 12.0685 16.0084 11.9597 15.3586 11.9597C15.1034 11.9597 14.8566 12.0634 14.3799 12.3707C14.0866 12.5602 13.7435 12.7793 13.3605 13.0217C13.033 13.2283 12.5893 13.4219 12.0414 13.5972C11.5067 13.7686 10.9639 13.8555 10.4281 13.8555C9.89237 13.8555 9.34973 13.7686 8.81454 13.5972C8.26713 13.4221 7.82349 13.2285 7.49638 13.0218C7.11701 12.7818 6.77369 12.5626 6.47596 12.3705C5.99989 12.0632 5.75289 11.9595 5.49769 11.9595C4.84767 11.9595 4.24038 12.0685 3.6924 12.2834C3.14271 12.499 2.66683 12.795 2.27792 13.1635C1.90657 13.5156 1.57526 13.9431 1.29374 14.4341C1.02233 14.9072 0.802605 15.4008 0.640863 15.9012C0.484653 16.385 0.354001 16.9141 0.252531 17.474C0.152014 18.029 0.0837318 18.5555 0.0499721 19.039C0.0167845 19.5128 0 20.0045 0 20.5011C0 21.7936 0.414844 22.8399 1.2329 23.6115C2.04084 24.373 3.1099 24.7593 4.40994 24.7593H16.4475C17.7475 24.7593 18.8162 24.3732 19.6243 23.6115C20.4426 22.8404 20.8574 21.7939 20.8574 20.5009C20.8572 20.002 20.8403 19.51 20.8069 19.0385Z" fill="#90A1B1"/>
</svg>
