<svg width="90" height="90" viewBox="0 0 90 90" fill="none" xmlns="http://www.w3.org/2000/svg">
<path d="M54.3111 20.1295C58.4725 22.7386 61.3905 27.1538 61.9218 32.2789C63.6189 33.0719 65.5024 33.5279 67.4994 33.5279C74.79 33.5279 80.699 27.6188 80.699 20.3294C80.699 13.0389 74.79 7.12988 67.4994 7.12988C60.2785 7.13213 54.4212 12.9356 54.3111 20.1295ZM45.6638 47.1553C52.9543 47.1553 58.8633 41.2452 58.8633 33.9558C58.8633 26.6664 52.9532 20.7574 45.6638 20.7574C38.3744 20.7574 32.462 26.6675 32.462 33.9569C32.462 41.2463 38.3744 47.1553 45.6638 47.1553ZM51.2628 48.055H40.0625C30.7435 48.055 23.1621 55.6376 23.1621 64.9565V78.6537L23.1969 78.8682L24.1404 79.1636C33.0337 81.9423 40.76 82.8689 47.1194 82.8689C59.5406 82.8689 66.7402 79.3276 67.1838 79.1018L68.0655 78.6559H68.1599V64.9565C68.1632 55.6376 60.5818 48.055 51.2628 48.055ZM73.1007 34.4286H61.9869C61.8667 38.8753 59.9686 42.8794 56.9663 45.7592C65.2497 48.2224 71.3104 55.9038 71.3104 64.9768V69.1976C82.2838 68.7956 88.6073 65.6855 89.024 65.4766L89.9057 65.0295H90V51.3279C90 42.0101 82.4186 34.4286 73.1007 34.4286ZM22.5028 33.5301C25.085 33.5301 27.4875 32.7765 29.5227 31.4927C30.1696 27.2729 32.4317 23.5855 35.6631 21.0741C35.6765 20.827 35.7001 20.5821 35.7001 20.3328C35.7001 13.0423 29.79 7.13325 22.5028 7.13325C15.2112 7.13325 9.30326 13.0423 9.30326 20.3328C9.30326 27.62 15.2112 33.5301 22.5028 33.5301ZM34.3568 45.7592C31.3692 42.894 29.4777 38.9112 29.3396 34.4915C28.9274 34.4612 28.5197 34.4286 28.0996 34.4286H16.9004C7.58143 34.4286 0 42.0101 0 51.3279V65.0273L0.0348184 65.2385L0.978285 65.5361C8.11269 67.7634 14.48 68.7899 20.0105 69.1134V64.9768C20.0127 55.9038 26.0711 48.2246 34.3568 45.7592Z" fill="#CBAE60"/>
</svg>
