<svg width="90" height="90" viewBox="0 0 90 90" fill="none" xmlns="http://www.w3.org/2000/svg">
<path d="M2.6328 68.7314H71.5421C72.1602 68.7314 72.7576 68.5151 73.2313 68.121C73.8932 67.5668 88.9911 54.5786 89.9118 26.542H15.9045C14.9874 51.9917 1.08287 63.9538 0.93837 64.0731C0.091242 64.789 -0.220432 65.9581 0.160679 66.9984C0.539153 68.0361 1.52551 68.7314 2.6328 68.7314Z" fill="#CBAE60"/>
<path d="M87.363 10.7209H74.1788V8.0841C74.1788 6.60747 73.0186 5.44727 71.542 5.44727C70.0654 5.44727 68.9051 6.60747 68.9051 8.0841V10.7209H55.5452V8.0841C55.5452 6.60747 54.385 5.44727 52.9083 5.44727C51.4317 5.44727 50.2715 6.60747 50.2715 8.0841V10.7209H37.0873V8.0841C37.0873 6.60747 35.9271 5.44727 34.4505 5.44727C32.9738 5.44727 31.8136 6.60747 31.8136 8.0841V10.7209H18.6295C17.1528 10.7209 15.9926 11.8811 15.9926 13.3578V21.2683H89.9998V13.3578C89.9998 11.8811 88.8396 10.7209 87.363 10.7209Z" fill="#CBAE60"/>
<path d="M76.6175 72.1639C75.1857 73.3561 73.3884 74.0052 71.5421 74.0052H15.9927V81.9157C15.9927 83.3731 17.1721 84.5525 18.6296 84.5525H87.3631C88.8206 84.5525 90 83.3731 90 81.9157V52.3574C84.9161 64.8298 77.822 71.1558 76.6175 72.1639Z" fill="#CBAE60"/>
</svg>
