<svg width="90" height="91" viewBox="0 0 90 91" fill="none" xmlns="http://www.w3.org/2000/svg">
<g clip-path="url(#clip0)">
<path d="M83.6825 28.3096H81.2176V55.4035C81.2176 59.6221 78.7614 63.4366 73.8374 63.4366H25.5952V64.7247C25.5952 68.4543 29.8371 72.2191 34.1932 72.2191H71.0767L85.1873 80.5156L83.1409 72.2191H83.6825C88.0357 72.2191 90.0001 68.4631 90.0001 64.7247V34.7413C90.0001 31.0116 88.0357 28.3096 83.6825 28.3096Z" fill="#CBAE60"/>
<path d="M66.6357 9.48535H10.6034C5.67349 9.48535 0 13.8649 0 18.0863V52.0453C0 55.933 4.80695 58.7405 9.41775 59.1737L6.41707 70.5646L25.6449 59.2528H66.6357C71.5656 59.2528 76.1149 56.2638 76.1149 52.0453V24.5707V18.0863C76.1149 13.8649 71.5626 9.48535 66.6357 9.48535ZM19.1517 38.1514C16.3559 38.1514 14.09 35.8855 14.09 33.0898C14.09 30.294 16.3559 28.0281 19.1517 28.0281C21.9445 28.0281 24.2133 30.294 24.2133 33.0898C24.2133 35.8855 21.9445 38.1514 19.1517 38.1514ZM38.0574 38.1514C35.2617 38.1514 32.9958 35.8855 32.9958 33.0898C32.9958 30.294 35.2617 28.0281 38.0574 28.0281C40.8532 28.0281 43.1191 30.294 43.1191 33.0898C43.1191 35.8855 40.8532 38.1514 38.0574 38.1514ZM56.9661 38.1514C54.1704 38.1514 51.9016 35.8855 51.9016 33.0898C51.9016 30.294 54.1704 28.0281 56.9661 28.0281C59.756 28.0281 62.0278 30.294 62.0278 33.0898C62.0278 35.8855 59.756 38.1514 56.9661 38.1514Z" fill="#CBAE60"/>
</g>
<defs>
<clipPath id="clip0">
<rect width="90" height="90.0029" fill="white"/>
</clipPath>
</defs>
</svg>
