<svg width="26" height="19" viewBox="0 0 26 19" fill="none" xmlns="http://www.w3.org/2000/svg">
<path d="M25.771 1.28711L17.8857 9.00293L25.771 16.7188C25.9135 16.4253 26 16.101 26 15.7546V2.25129C26 1.90486 25.9135 1.58053 25.771 1.28711Z" fill="white"/>
<path d="M23.7149 0H2.28516C1.9334 0 1.60409 0.0851666 1.30615 0.225544L11.3844 10.1006C12.2755 10.9782 13.7246 10.9782 14.6157 10.1006L24.6939 0.225544C24.3959 0.0851666 24.0666 0 23.7149 0Z" fill="white"/>
<path d="M0.229024 1.28711C0.0864805 1.58053 0 1.90486 0 2.25129V15.7546C0 16.101 0.0864805 16.4254 0.229024 16.7188L8.11429 9.00293L0.229024 1.28711Z" fill="white"/>
<path d="M16.8086 10.0615L15.6928 11.1604C14.208 12.6228 11.792 12.6228 10.3072 11.1604L9.19141 10.0615L1.30615 17.7774C1.60409 17.9178 1.9334 18.0029 2.28516 18.0029H23.7149C24.0666 18.0029 24.3959 17.9178 24.6939 17.7774L16.8086 10.0615Z" fill="white"/>
</svg>
