<svg width="20" height="27" viewBox="0 0 20 27" fill="none" xmlns="http://www.w3.org/2000/svg">
<path d="M9.95137 0C4.55956 0 0.173019 4.32008 0.173019 9.63015C0.173019 16.2201 8.92369 25.8946 9.29625 26.3032C9.6462 26.687 10.2572 26.6864 10.6065 26.3032C10.9791 25.8946 19.7297 16.2201 19.7297 9.63015C19.7296 4.32008 15.3431 0 9.95137 0ZM9.95137 14.4753C7.23862 14.4753 5.03169 12.3018 5.03169 9.63015C5.03169 6.95849 7.23867 4.785 9.95137 4.785C12.6641 4.785 14.871 6.95855 14.871 9.6302C14.871 12.3019 12.6641 14.4753 9.95137 14.4753Z" fill="white"/>
</svg>
