<svg width="40" height="40" viewBox="0 0 40 40" fill="none" xmlns="http://www.w3.org/2000/svg">
<rect width="40" height="40" rx="6" fill="#0FE624"/>
<g clip-path="url(#clip0)">
<path d="M26.4248 22.6906L26.4143 22.7781C23.8488 21.4994 23.5805 21.3291 23.2491 21.8261C23.0193 22.1702 22.3496 22.9507 22.1478 23.1817C21.9436 23.4092 21.7406 23.4267 21.3941 23.2692C21.0441 23.0942 19.9206 22.7267 18.5906 21.5367C17.5546 20.6092 16.8593 19.4717 16.654 19.1217C16.3121 18.5314 17.0273 18.4474 17.6783 17.2154C17.795 16.9704 17.7355 16.7779 17.6491 16.6041C17.5616 16.4291 16.8651 14.7141 16.5735 14.0304C16.2935 13.3491 16.0053 13.4354 15.7895 13.4354C15.1175 13.3771 14.6263 13.3864 14.1935 13.8367C12.3105 15.9064 12.7853 18.0414 14.3965 20.3117C17.5628 24.4557 19.2498 25.2187 22.3345 26.2781C23.1675 26.5429 23.927 26.5056 24.5278 26.4192C25.1975 26.3131 26.5893 25.5781 26.8798 24.7556C27.1773 23.9331 27.1773 23.2506 27.0898 23.0931C27.0035 22.9356 26.7748 22.8481 26.4248 22.6906Z" fill="white"/>
<path d="M29.94 10.0234C20.9695 1.35153 6.12367 7.64103 6.11783 19.8747C6.11783 22.32 6.75833 24.7047 7.97867 26.8105L6 33.9995L13.3908 32.0722C22.6133 37.0539 33.9953 30.4389 34 19.8817C34 16.1764 32.5533 12.6892 29.9225 10.0689L29.94 10.0234ZM31.669 19.8432C31.662 28.7484 21.8865 34.3099 14.155 29.7645L13.735 29.5149L9.36 30.6524L10.5325 26.3999L10.2537 25.9624C5.44233 18.3032 10.97 8.29319 20.084 8.29319C23.1803 8.29319 26.0865 9.50069 28.2752 11.6882C30.4627 13.857 31.669 16.7632 31.669 19.8432Z" fill="white"/>
</g>
<defs>
<clipPath id="clip0">
<rect width="28" height="28" fill="white" transform="translate(6 6)"/>
</clipPath>
</defs>
</svg>
